<svg id="лого" xmlns="http://www.w3.org/2000/svg" width="159" height="95" viewBox="0 0 159 95">
  <metadata><?xpacket begin="﻿" id="W5M0MpCehiHzreSzNTczkc9d"?>
<x:xmpmeta xmlns:x="adobe:ns:meta/" x:xmptk="Adobe XMP Core 5.6-c142 79.160924, 2017/07/13-01:06:39        ">
   <rdf:RDF xmlns:rdf="http://www.w3.org/1999/02/22-rdf-syntax-ns#">
      <rdf:Description rdf:about=""/>
   </rdf:RDF>
</x:xmpmeta>
                                                                                                    
                                                                                                    
                                                                                                    
                                                                                                    
                                                                                                    
                                                                                                    
                                                                                                    
                                                                                                    
                                                                                                    
                                                                                                    
                                                                                                    
                                                                                                    
                                                                                                    
                                                                                                    
                                                                                                    
                                                                                                    
                                                                                                    
                                                                                                    
                                                                                                    
                                                                                                    
                           
<?xpacket end="w"?></metadata>
<defs>
    <style>
      .cls-1 {
        fill: #2053f7;
      }

      .cls-1, .cls-2 {
        fill-rule: evenodd;
      }

      .cls-2, .cls-3 {
        fill: #333;
      }
    </style>
  </defs>
  <path id="KMK" class="cls-1" d="M342.613,64.172V61.948H320.061v2.225h5.557v41.45h-5.557v2.225h22.552v-2.225h-5.8V64.172h5.8Zm11.679,5.064a22.151,22.151,0,0,1,5.181-4.26,11.71,11.71,0,0,1,4.812-.8h3.24V61.948H348.552v2.225h3.069q2.661,0,2.662,1.129,0,0.889-1.878,2.8L337.221,83.7l14.613,21.923h-5.6v2.225h21.36v-2.225h-2.624L346.049,77.485Zm22.5-7.289v2.225h0.771v36.963a11.46,11.46,0,0,1-.58,4.349c-0.387.593,0.033,0.89-1.742,0.89h-2.8v0.57h12.29v-0.57h-0.1q-3.243,0-3.959-.907c-0.478-.606-0.717-2.619-0.717-4.538L379.4,61.892h9.9V65.5h-4.65a1.726,1.726,0,0,0-1.8,1.805v6.251l10.532,34.289h1.568l13.262-41.21v38.985H402.2v2.225h23.22v-2.225H419.4V64.172h6.02V61.948H407.289l-8.655,26.561-8.548-26.561h-13.3Zm74.385,2.225V61.948H427.722v2.225h6.456v41.45h-6.456v2.225h23.452v-2.225h-5.8V64.172h5.8Zm11.679,5.064a22.173,22.173,0,0,1,5.18-4.26,11.717,11.717,0,0,1,4.812-.8h6.09V61.948H457.112v2.225h3.07q2.661,0,2.661,1.129,0,0.889-1.877,2.8L445.782,83.7l14.612,21.923h-5.6v2.225H479v-2.225h-5.474L454.61,77.485Zm-89.608-10.8h8.1L380,108.975h-8.55Zm5.1,36.255h10.187v14.75H378.344V94.687Zm-0.438-34.312h11.375v3.156H377.906V60.375Z" transform="translate(-320 -44)"/>
  <path id="KMK_копия_2" data-name="KMK копия 2" class="cls-2" d="M375.945,87.164l-0.035,13.972a7.4,7.4,0,0,1-.58,3.6c-0.387.593-1.317,0.89-3.092,0.89h-2.8v2.225h18.289v-2.225h-3.1c-2.162,0-2.131-.3-2.609-0.908s-0.717-1.866-.717-3.785V87.183m-0.015,8.856,0.035-27.459A7.348,7.348,0,0,1,381.9,65c0.388-.592,1.319-0.887,3.094-0.887h2.8V61.892H369.5v2.217H372.6c2.163,0,2.133.3,2.611,0.9s0.718,1.86.718,3.772V96.019" transform="translate(-320 -44)"/>
  <path id="Прямоугольник_1" data-name="Прямоугольник 1" class="cls-2" d="M320,53.025h1.5l1.8-7.521h2.4l1.8,7.521H329L326.749,44h-4.5Zm15,0h1.5l1.8-7.521h2.4l1.8,7.521H344L341.748,44h-4.5Zm15,0h1.5l1.8-7.521h2.4l1.8,7.521H359L356.747,44h-4.5Zm-22.5-1.494h9v1.5h-9v-1.5Zm15,0h9v1.5h-9v-1.5Zm15,0h9v1.5h-9v-1.5Zm7.5,1.494h1.5l1.8-7.521h2.4l1.8,7.521H374L371.745,44h-4.5Zm15,0h1.5l1.8-7.521h2.4l1.8,7.521h1.5L386.744,44h-4.5Zm15,0h1.5l1.8-7.521h2.4l1.8,7.521h1.5L401.743,44h-4.5ZM372.5,51.531h9v1.5h-9v-1.5Zm15,0h9v1.5h-9v-1.5Zm15,0h9v1.5h-9v-1.5Zm7.492,1.494h1.5l1.8-7.521h2.4l1.8,7.521h1.5L416.741,44h-4.5Zm15,0h1.5l1.8-7.521h2.4l1.8,7.521h1.5L431.74,44h-4.5Zm15,0h1.5l1.8-7.521h2.4l1.8,7.521h1.5L446.739,44h-4.5ZM417.5,51.531h9v1.5h-9v-1.5Zm15,0h9v1.5h-9v-1.5Zm15,0h9v1.5h-9v-1.5Zm7.488,1.494h1.5l1.8-7.521h2.4l1.8,7.521h1.5L461.737,44h-4.5Zm15,0h1.5l1.8-7.521h2.4l1.8,7.521h1.5L476.736,44h-4.5ZM462.5,51.531h9v1.5h-9v-1.5Z" transform="translate(-320 -44)"/>
  <circle id="Эллипс_1" data-name="Эллипс 1" class="cls-3" cx="84.906" cy="89.344" r="1.5"/>
  <path id="сэнdвич_панели" data-name="сэнdвич   панели" class="cls-2" d="M329.484,135.838c-0.825,1.655-1.716,2.565-3.4,2.565-2.507,0-4.322-2.118-4.322-5.212,0-2.515,1.468-4.848,4.223-4.848a2.872,2.872,0,0,1,3.2,2.465l0.5-.116c-0.1-.893-0.2-1.555-0.33-2.5a12.983,12.983,0,0,0-2.92-.447c-3.679,0-6.352,2.3-6.352,5.775,0,2.631,1.8,5.477,5.906,5.477a13.861,13.861,0,0,0,3.036-.447,17.75,17.75,0,0,0,.941-2.531Zm2.772-4.781c0.445-1.291,1.006-2.714,3.2-2.714,1.964,0,3.614,1.241,3.746,4.484l-5.725-.149V133.6l5.741-.133c-0.016,3.095-1.683,4.931-3.729,4.931a3,3,0,0,1-2.936-1.919,0.839,0.839,0,0,0-.644-0.579,0.58,0.58,0,0,0-.511.628,1.993,1.993,0,0,0,.726,1.324A4.7,4.7,0,0,0,335.39,139c1.848,0,5.462-.943,5.462-5.957a5.013,5.013,0,0,0-5.247-5.3,11.574,11.574,0,0,0-3.481.811c-0.132.794-.231,1.572-0.347,2.416ZM353.572,128h-4.306v0.464c1.287,0.115,1.419.2,1.419,1.571v2.681h-5.627V130.03c0-1.373.133-1.456,1.386-1.571V128h-4.273v0.464c1.353,0.115,1.485.182,1.485,1.571v6.685c0,1.39-.132,1.473-1.452,1.572v0.464h4.339v-0.464c-1.352-.1-1.485-0.2-1.485-1.572v-3.309h5.627v3.309c0,1.39-.149,1.473-1.551,1.572v0.464h4.421v-0.464c-1.336-.1-1.468-0.182-1.468-1.572V130.03c0-1.373.132-1.456,1.485-1.571V128Zm1.3,0v0.48c1.27,0.1,1.4.166,1.4,1.589V136.7c0,1.406-.132,1.506-1.551,1.6v0.447h3.911a7.76,7.76,0,0,0,4.9-1.374,5.257,5.257,0,0,0,2.029-4.418,4.88,4.88,0,0,0-1.386-3.557c-1.023-.977-2.574-1.407-4.669-1.407h-4.636Zm2.821,1.7a1.034,1.034,0,0,1,.215-0.944,2.711,2.711,0,0,1,1.287-.2,5.111,5.111,0,0,1,2.8.678,4.358,4.358,0,0,1,1.947,3.955c0,2.647-1.419,4.964-4.5,4.964-1.2,0-1.749-.314-1.749-1.572V129.7Zm14.75,3.21a2.622,2.622,0,0,0,2.227-2.466,2.249,2.249,0,0,0-.924-1.886,4.121,4.121,0,0,0-2.475-.563h-4.24v0.464c1.32,0.1,1.386.2,1.386,1.571V136.7c0,1.39-.1,1.489-1.518,1.588v0.464h3.646a6.706,6.706,0,0,0,3.234-.662,2.806,2.806,0,0,0,1.584-2.5c0-1.654-1.287-2.382-2.92-2.631V132.91Zm-2.64-.149v-3.243a0.9,0.9,0,0,1,.214-0.828,2.127,2.127,0,0,1,.941-0.165,1.982,1.982,0,0,1,2.194,2.118c0,1.39-.759,2.118-2.574,2.118h-0.775Zm0,0.546h0.759c2.013,0,3.168.744,3.168,2.449a2.32,2.32,0,0,1-2.558,2.432c-1.056,0-1.369-.314-1.369-1.506v-3.375Zm17.934,5.444v-0.464c-1.254-.1-1.4-0.182-1.4-1.605v-6.519c0-1.473.149-1.605,1.4-1.7V128h-2.953v0.166a0.956,0.956,0,0,1-.182.546l-5.18,8.538h-0.033c0.066-1.638.066-2.5,0.066-3.26v-4.037c0-1.291.164-1.39,1.4-1.489V128H376.7v0.464c1.254,0.1,1.386.2,1.386,1.5v6.6c0,1.5-.132,1.621-1.386,1.72v0.464h2.9v-0.182a1.069,1.069,0,0,1,.149-0.629l5.23-8.654h0.066c-0.083,1.588-.083,2.532-0.083,3.078v4.318c0,1.423-.148,1.506-1.419,1.605v0.464h4.191ZM398.711,128h-4.157v0.464c1.221,0.1,1.369.2,1.369,1.522v2.962a4.742,4.742,0,0,1-2,.513c-1.8,0-2.525-.728-2.525-2.267v-1.258c0-1.274.132-1.373,1.353-1.472V128H388.73v0.464c1.138,0.1,1.27.182,1.27,1.439v1.473a2.952,2.952,0,0,0,.512,1.936,3.09,3.09,0,0,0,2.573,1.026,3.688,3.688,0,0,0,1.221-.215l1.617-.579v3.127c0,1.406-.132,1.506-1.468,1.621v0.464h4.256v-0.464c-1.254-.115-1.386-0.2-1.386-1.621v-6.7c0-1.307.132-1.406,1.386-1.5V128Zm23.095,10.756v-0.464c-1.3-.1-1.452-0.165-1.452-1.621V130.08c0-1.439.148-1.522,1.435-1.621V128H411v0.464c1.287,0.1,1.419.165,1.419,1.621v6.586c0,1.439-.132,1.522-1.435,1.621v0.464h4.289v-0.464c-1.3-.1-1.452-0.2-1.452-1.621v-6.917c0-1.042.1-1.175,1.023-1.175h3.118c0.908,0,.99.133,0.99,1.092v7c0,1.456-.132,1.522-1.452,1.621v0.464h4.307Zm11.763,0v-0.464c-1.073-.1-1.287-0.248-1.815-1.671-1.056-2.879-2.161-6.023-3.184-8.869l-0.512.149-3.415,8.687c-0.577,1.456-.808,1.556-1.848,1.7v0.464h3.58v-0.464c-1.237-.115-1.385-0.281-1.022-1.323,0.214-.695.461-1.39,0.725-2.135h3.515c0.363,1.009.693,1.9,0.907,2.548s0.066,0.778-.973.91v0.464h4.042Zm-4.207-4.633h-3.036c0.5-1.357,1.023-2.8,1.551-4.22h0.033ZM446.207,128H441.9v0.464c1.287,0.115,1.419.2,1.419,1.571v2.681h-5.626V130.03c0-1.373.132-1.456,1.386-1.571V128h-4.273v0.464c1.353,0.115,1.485.182,1.485,1.571v6.685c0,1.39-.132,1.473-1.452,1.572v0.464h4.339v-0.464c-1.353-.1-1.485-0.2-1.485-1.572v-3.309h5.626v3.309c0,1.39-.148,1.473-1.551,1.572v0.464h4.422v-0.464c-1.336-.1-1.468-0.182-1.468-1.572V130.03c0-1.373.132-1.456,1.485-1.571V128Zm9.123,8.075a4.833,4.833,0,0,1-.808,1.556c-0.363.43-.825,0.562-2.079,0.562a3.7,3.7,0,0,1-1.716-.215,1.471,1.471,0,0,1-.4-1.34v-3.128H451.9c1.436,0,1.551.1,1.766,1.291h0.478v-3.177h-0.478c-0.215,1.109-.3,1.241-1.782,1.241h-1.551V129.1c0-.5.033-0.53,0.544-0.53h1.254c1.188,0,1.634.116,1.865,0.464a4.307,4.307,0,0,1,.528,1.423l0.478-.083c-0.049-.844-0.132-1.969-0.132-2.383H447.51v0.464c1.287,0.115,1.419.165,1.419,1.654V136.7c0,1.34-.132,1.473-1.634,1.588v0.464h7.953c0.148-.513.478-2.069,0.577-2.615Zm11.186,2.681v-0.464c-1.254-.1-1.386-0.182-1.386-1.621v-6.751c0-1.225.132-1.357,1.386-1.456V128H458.3v0.464c1.32,0.082,1.6.231,1.6,1.092,0,3.475-.66,5.89-1.4,7.148a4.528,4.528,0,0,1-1.715,1.82v0.3a2.281,2.281,0,0,0,.858.182,1.649,1.649,0,0,0,1.187-.827c1.172-1.539,1.848-4.633,1.848-9.1,0-.414.033-0.48,0.71-0.48H463.1c0.626,0,.626.066,0.626,0.778v7.3c0,1.439-.132,1.522-1.369,1.621v0.464h4.158Zm12.439,0v-0.464c-1.253-.1-1.4-0.182-1.4-1.605v-6.519c0-1.473.149-1.605,1.4-1.7V128H476v0.166a0.961,0.961,0,0,1-.181.546l-5.181,8.538h-0.033c0.066-1.638.066-2.5,0.066-3.26v-4.037c0-1.291.165-1.39,1.4-1.489V128h-4.158v0.464c1.254,0.1,1.386.2,1.386,1.5v6.6c0,1.5-.132,1.621-1.386,1.72v0.464h2.9v-0.182a1.076,1.076,0,0,1,.148-0.629l5.23-8.654h0.066c-0.082,1.588-.082,2.532-0.082,3.078v4.318c0,1.423-.149,1.506-1.419,1.605v0.464h4.19Z" transform="translate(-320 -44)"/>
  <path id="Прямоугольник_1_копия" data-name="Прямоугольник 1 копия" class="cls-2" d="M320,120h2l1-3h3l1,3h2l-2.251-4.061h-4.5Zm7.5-1.053h8L336,120h-9ZM335,120h2l1-3h3l1,3h2l-2.251-4.061h-4.5Zm7.5-1.053h8L351,120h-9ZM350,120h2l1-3h3l1,3h2l-2.251-4.061h-4.5Zm7.5-1.053h8L366,120h-9ZM365,120h2l1-3h3l1,3h2l-2.251-4.061h-4.5Zm7.5-1.053h8L381,120h-9ZM380,120h2l1-3h3l1,3h2l-2.251-4.061h-4.5Zm7.5-1.053h8L396,120h-9ZM395,120h2l1-3h3l1,3h2l-2.251-4.061h-4.5Zm7.5-1.053h8L411,120h-9ZM410,120h2l1-3h3l1,3h2l-2.251-4.061h-4.5Zm7.5-1.053h8L426,120h-9ZM425,120h2l1-3h3l1,3h2l-2.251-4.061h-4.5Zm7.5-1.053h8L441,120h-9ZM440,120h2l1-3h3l1,3h2l-2.251-4.061h-4.5Zm7.5-1.053h8L456,120h-9ZM455,120h2l1-3h3l1,3h2l-2.251-4.061h-4.5Zm7.5-1.053h9L472,120H462ZM470,120h2l1-3h3l1,3h2l-2.251-4.061h-4.5Z" transform="translate(-320 -44)"/>
</svg>
